<?xml version="1.0" encoding="utf-8"?>
<!-- Generator: Adobe Illustrator 15.0.0, SVG Export Plug-In . SVG Version: 6.00 Build 0)  -->
<!DOCTYPE svg PUBLIC "-//W3C//DTD SVG 1.1//EN" "http://www.w3.org/Graphics/SVG/1.1/DTD/svg11.dtd">
<svg version="1.1" id="Layer_1" xmlns="http://www.w3.org/2000/svg" xmlns:xlink="http://www.w3.org/1999/xlink" x="0px" y="0px"
	 width="195px" height="203px" viewBox="20 30 215 233" xml:space="preserve">
<rect x="20" y="30" fill="#fff" width="195" height="203"/>
<g>
	<g>
		<g>
			<path fill="#EE4968" d="M47.852,173.771V88.75l0.017,0.012l73.617,42.498l-0.015,0.008L47.852,173.771z"/>
		</g>
	</g>
	<g>
		<g>
			<path fill="#F58D4D" d="M121.479,216.275l-0.014-0.008l-73.617-42.505l0.017-0.008l73.618-42.503L121.479,216.275z"/>
		</g>
		<g>
			<path fill="#2AB682" d="M121.471,131.268l0.004-85.021l0.015,0.008l73.615,42.504l-0.017,0.009L121.471,131.268z"/>
		</g>
	</g>
	<g>
		<g>
			<path fill="#EFD356" d="M121.475,216.275v-85.028l0.015,0.013l73.615,42.503l-0.015,0.009L121.475,216.275z"/>
		</g>
		<g>
			<path fill="#2EBEC7" d="M121.482,131.268l-0.016-0.008L47.852,88.754l0.015-0.008l73.612-42.5L121.482,131.268z"/>
		</g>
	</g>
</g>
</svg>
